<svg width="500" height="500" viewBox="0 0 500 500" fill="none" xmlns="http://www.w3.org/2000/svg">
<g clip-path="url(#clip0_18_11)">
<rect width="500" height="500" fill="#F5F5F5"/>
<path d="M425.431 503.032C412.95 503.032 401.964 500.483 392.472 495.386C383.067 490.288 375.729 483.389 370.455 474.688C365.182 465.898 362.545 456.055 362.545 445.156C362.545 442.695 362.633 440.278 362.809 437.905C362.984 435.444 363.292 432.939 363.732 430.391L367.423 409.297C370.587 391.279 378.277 377.173 390.494 366.978C402.799 356.694 417.828 351.553 435.582 351.553C448.414 351.553 459.576 354.102 469.068 359.199C478.649 364.297 486.075 371.24 491.349 380.029C496.71 388.73 499.391 398.618 499.391 409.692C499.391 411.802 499.259 414.087 498.995 416.548C498.819 418.921 498.512 421.426 498.072 424.062L494.381 445.156C491.217 463.438 483.526 477.676 471.31 487.871C459.093 497.979 443.8 503.032 425.431 503.032ZM435.187 381.084C426.398 381.084 419.147 383.896 413.434 389.521C407.809 395.059 404.029 403.145 402.096 413.779L398.668 433.555C398.316 435.4 398.053 437.29 397.877 439.224C397.701 441.069 397.613 442.783 397.613 444.365C397.613 453.066 400.338 460.142 405.787 465.591C411.324 470.952 418.312 473.633 426.749 473.633C435.626 473.633 442.877 470.82 448.502 465.195C454.127 459.57 457.906 451.309 459.84 440.41L463.4 420.503C463.663 418.833 463.839 417.075 463.927 415.229C464.103 413.384 464.191 411.714 464.191 410.22C464.191 401.606 461.51 394.619 456.149 389.258C450.787 383.809 443.8 381.084 435.187 381.084Z" fill="#161D31"/>
<path d="M342.348 500H216.708L221.586 471.26H268.256L284.208 383.457H239.911L244.657 354.585H324.023L303.324 471.26H347.226L342.348 500Z" fill="#161D31"/>
<path d="M169.854 502.505C164.58 502.505 159.746 501.187 155.352 498.55C150.957 495.825 147.441 492.222 144.805 487.739C142.168 483.169 140.85 478.203 140.85 472.842C140.85 467.305 142.168 462.295 144.805 457.812C147.441 453.33 150.957 449.771 155.352 447.134C159.746 444.409 164.58 443.047 169.854 443.047C175.215 443.047 180.093 444.409 184.487 447.134C188.882 449.771 192.354 453.33 194.902 457.812C197.539 462.295 198.857 467.305 198.857 472.842C198.857 478.203 197.539 483.169 194.902 487.739C192.354 492.222 188.882 495.825 184.487 498.55C180.093 501.187 175.215 502.505 169.854 502.505Z" fill="#161D31"/>
<path d="M38.3604 502.241C29.835 502.241 22.2764 500.527 15.6846 497.1C9.18074 493.584 4.03914 488.794 0.259844 482.729C-3.51945 476.665 -5.4091 469.722 -5.4091 461.899C-5.49699 446.519 -0.0917187 434.653 10.8067 426.304C21.793 417.866 37.7452 413.428 58.6632 412.988L91.2266 412.197L92.6768 403.496C92.9405 402.441 93.1163 401.475 93.2042 400.596C93.2921 399.629 93.336 398.794 93.336 398.091C93.336 392.729 91.2706 388.467 87.1397 385.303C83.0089 382.139 77.5157 380.557 70.6602 380.557C64.8595 380.557 59.6739 381.875 55.1036 384.512C50.5333 387.148 47.3692 390.708 45.6114 395.19H10.2794C11.8614 386.753 15.6407 379.282 21.6173 372.778C27.5938 366.274 35.1085 361.177 44.1612 357.485C53.3018 353.706 63.2335 351.816 73.9561 351.816C90.5675 351.816 103.839 355.771 113.771 363.682C123.79 371.592 128.8 382.139 128.8 395.322C128.8 396.729 128.756 398.223 128.668 399.805C128.58 401.387 128.404 403.101 128.141 404.946C127.877 406.704 127.525 408.813 127.086 411.274L111.529 500H77.252L80.6798 480.884H77.7794C74.3516 487.739 69.21 493.013 62.3546 496.704C55.4991 500.396 47.5011 502.241 38.3604 502.241ZM52.335 473.369C57.8721 473.369 62.9259 472.227 67.4962 469.941C72.0665 467.656 75.9337 464.448 79.0977 460.317C82.2618 456.187 84.2833 451.396 85.1622 445.947L87.2716 435.4L60.9044 435.928C51.3243 436.104 43.8975 437.993 38.6241 441.597C33.4386 445.2 30.8018 450.21 30.7139 456.626C30.7139 461.636 32.6915 465.679 36.6466 468.755C40.6895 471.831 45.919 473.369 52.335 473.369Z" fill="#161D31"/>
<path d="M88.5554 334.986C81.7972 334.986 75.9748 332.491 71.0882 327.5C66.3055 322.51 63.9141 316.531 63.9141 309.565C63.9141 302.599 66.3055 296.621 71.0882 291.63C75.9748 286.64 81.7972 284.144 88.5554 284.144C95.4175 284.144 101.24 286.64 106.023 291.63C110.909 296.621 113.353 302.599 113.353 309.565C113.353 316.531 110.909 322.51 106.023 327.5C101.24 332.491 95.4175 334.986 88.5554 334.986Z" fill="#161D31"/>
<path d="M312.518 334.986C305.76 334.986 299.938 332.491 295.051 327.5C290.268 322.51 287.877 316.531 287.877 309.565C287.877 302.599 290.268 296.621 295.051 291.63C299.938 286.64 305.76 284.144 312.518 284.144C319.38 284.144 325.203 286.64 329.986 291.63C334.872 296.621 337.316 302.599 337.316 309.565C337.316 316.531 334.872 322.51 329.986 327.5C325.203 332.491 319.38 334.986 312.518 334.986Z" fill="#161D31"/>
</g>
<defs>
<clipPath id="clip0_18_11">
<rect width="500" height="500" fill="white"/>
</clipPath>
</defs>
</svg>
